<?xml version="1.0" standalone="no"?>
<!DOCTYPE svg PUBLIC "-//W3C//DTD SVG 20010904//EN"
 "http://www.w3.org/TR/2001/REC-SVG-20010904/DTD/svg10.dtd">
<svg version="1.0" xmlns="http://www.w3.org/2000/svg"
 width="275.000000pt" height="97.000000pt" viewBox="0 0 275.000000 97.000000"
 preserveAspectRatio="xMidYMid meet">

<g transform="translate(0.000000,97.000000) scale(0.100000,-0.100000)"
fill="#000000" stroke="none">
<path d="M2378 921 c-53 -14 -99 -29 -102 -32 -3 -3 39 -36 94 -73 l99 -68
108 28 108 28 -80 17 c-44 9 -68 17 -54 18 14 1 51 -4 82 -10 l57 -12 -6 -41
c-4 -22 -17 -58 -31 -79 -13 -22 -25 -51 -26 -65 -2 -25 1 -27 38 -27 40 0 40
0 37 35 -1 19 -3 68 -3 107 l0 73 -96 65 c-52 36 -102 64 -112 64 -9 -1 -60
-13 -113 -28z"/>
<path d="M2344 763 c-9 -45 2 -63 52 -88 49 -25 171 -33 197 -13 17 13 43 95
33 105 -2 3 -39 -5 -81 -17 l-77 -22 -52 36 c-29 20 -55 36 -59 36 -3 0 -9
-16 -13 -37z"/>
<path d="M70 383 l0 -253 160 0 160 0 0 30 0 30 -130 0 -130 0 0 80 0 80 100
0 100 0 0 30 0 29 -97 3 -98 3 -3 78 -3 77 131 0 130 0 0 30 0 29 -160 3 -160
3 0 -252z"/>
<path d="M460 635 c0 0 -1 -114 -3 -253 l-2 -252 105 0 c90 0 113 4 156 24 86
40 133 121 133 231 1 95 -40 169 -119 218 -29 18 -55 23 -153 27 -64 3 -117 5
-117 5z m227 -84 c53 -25 92 -82 100 -148 4 -41 1 -61 -19 -105 -34 -74 -76
-100 -174 -106 l-74 -5 0 192 0 191 63 0 c39 0 77 -7 104 -19z"/>
<path d="M893 623 c-3 -7 -3 -90 -1 -185 4 -187 9 -208 65 -259 43 -41 73 -52
133 -52 66 0 107 19 149 70 42 51 53 112 49 288 l-3 149 -30 0 -30 0 -5 -179
c-5 -196 -10 -213 -63 -245 -59 -36 -146 -16 -179 42 -9 16 -15 81 -18 202
l-5 179 -29 2 c-15 0 -30 -5 -33 -12z"/>
<path d="M1355 631 c-3 -2 -5 -116 -5 -253 l0 -248 35 0 35 0 0 110 0 111 123
-3 122 -3 3 -107 3 -108 29 0 30 0 0 249 0 249 -30 4 -29 4 -3 -110 -3 -111
-122 -3 -122 -3 -3 112 -3 112 -28 1 c-15 1 -30 0 -32 -3z"/>
<path d="M1800 452 c0 -180 1 -187 25 -228 80 -136 270 -130 340 10 24 47 25
59 25 222 l0 172 -30 4 -30 5 0 -151 c0 -83 -5 -169 -10 -190 -20 -88 -119
-133 -193 -87 -59 36 -67 67 -67 254 l0 165 -30 4 -30 5 0 -185z"/>
<path d="M2254 631 c-2 -2 -4 -117 -4 -254 l0 -249 134 4 c133 3 135 3 173 34
46 37 68 89 59 138 -6 34 -48 88 -74 97 -9 3 -7 14 8 44 22 43 20 81 -6 122
-29 46 -62 58 -177 63 -60 3 -111 3 -113 1z m227 -90 c48 -60 3 -111 -97 -111
l-64 0 0 71 0 71 71 -4 c60 -3 74 -8 90 -27z m43 -210 c48 -45 26 -112 -42
-131 -20 -5 -65 -10 -99 -10 l-63 0 0 86 0 86 89 -4 c78 -3 93 -6 115 -27z"/>
<path d="M1800 45 c0 -28 8 -31 35 -12 21 16 12 37 -16 37 -14 0 -19 -7 -19
-25z"/>
<path d="M1880 47 c0 -32 35 -34 38 -1 1 18 -3 24 -18 24 -14 0 -20 -7 -20
-23z m30 9 c0 -3 -4 -8 -10 -11 -5 -3 -10 -1 -10 4 0 6 5 11 10 11 6 0 10 -2
10 -4z"/>
<path d="M1957 64 c-4 -4 -7 -16 -7 -26 0 -15 6 -19 28 -16 19 2 27 9 27 23 0
20 -33 33 -48 19z m33 -19 c0 -8 -7 -15 -15 -15 -16 0 -20 12 -8 23 11 12 23
8 23 -8z"/>
<path d="M2070 45 l0 -25 250 0 250 0 0 25 0 25 -250 0 -250 0 0 -25z"/>
</g>
</svg>
